<?xml version="1.0" standalone="no"?>
<!DOCTYPE svg PUBLIC "-//W3C//DTD SVG 1.1//EN" "http://www.w3.org/Graphics/SVG/1.1/DTD/svg11.dtd" >
<svg xmlns="http://www.w3.org/2000/svg">
<metadata></metadata>
<defs>
<font id="news_gothic_mtcondensedbold" horiz-adv-x="960" >
<font-face units-per-em="2048" ascent="1638" descent="-410" />
<missing-glyph horiz-adv-x="448" />
<glyph horiz-adv-x="2048" />
<glyph horiz-adv-x="2048" />
<glyph unicode="&#xd;" horiz-adv-x="681" />
<glyph unicode=" " horiz-adv-x="448" d="M369 0z" />
<glyph unicode="!" horiz-adv-x="575" d="M154 1526h266l-58 -1061h-151zM180 0v250h217v-250h-217z" />
<glyph unicode="&#x22;" horiz-adv-x="512" d="M16 1264v241h177v-241l-41 -281h-93zM319 1264v241h177v-241l-41 -281h-93z" />
<glyph unicode="#" horiz-adv-x="1366" d="M86 350v144h219l72 350h-291v143h320l86 397h143l-86 -397h399l84 397h144l-84 -397h188v-143h-217l-72 -350h289v-144h-317l-84 -395h-144l86 395h-403l-82 -395h-146l84 395h-188zM446 496h402l74 348h-402z" />
<glyph unicode="$" horiz-adv-x="854" d="M53 371h158q10 -94 44 -143.5t114 -75.5v540q-82 70 -136.5 126t-107.5 159.5t-53 208.5q0 158 88 237.5t209 102.5v112h120v-112q293 -47 287 -375h-164q2 190 -123 207v-512q53 -41 81 -65.5t79 -77t79 -97.5t50.5 -111.5t22.5 -136.5q0 -33 -4 -64.5t-22.5 -81.5 t-49.5 -91t-92.5 -78t-143.5 -55v-240h-120v240q-172 37 -240 135t-76 248zM248 1186q0 -109 121 -230v398q-59 -12 -90 -61.5t-31 -106.5zM489 156q74 12 111 64t37 108q-1 141 -148 256v-428z" />
<glyph unicode="%" horiz-adv-x="1728" d="M49 -393l1292 1673l-4 4q-182 -55 -344 -55q-174 0 -362 37q43 -117 43 -267q0 -283 -101 -383q-82 -82 -208 -81q-111 0 -191 79q-106 106 -106 375q0 68 4 119t23.5 116.5t52 108.5t94 73t145.5 30q63 0 217 -27q244 -45 379 -45q307 0 526 141h168l-1456 -1898h-172z M205 979q0 -309 164 -309q92 0 131 78.5t39 238.5q0 150 -38 230.5t-130 80.5q-59 0 -95 -29.5t-50.5 -88t-17.5 -97.5t-3 -104zM1034 68q0 446 297 446q301 0 301 -446q0 -287 -121 -385q-82 -70 -182 -70q-117 0 -196 84q-98 98 -99 371zM1167 66q0 -314 164 -314 q92 0 130 81t38 235q0 313 -166 313t-166 -315z" />
<glyph unicode="&#x26;" horiz-adv-x="1343" d="M117 369q0 240 276 432q-111 217 -110.5 372.5t102.5 252t252 96.5q141 0 237.5 -88t96.5 -215q0 -117 -77 -220.5t-218 -228.5q4 -8 17.5 -24.5t25.5 -36.5q109 -158 199 -256q51 106 63 280l209 -26q-23 -254 -111 -406q41 -37 140 -106q8 -8 20 -15l-135 -180 q-125 86 -172 121q-162 -137 -367 -137q-184 0 -316 108.5t-132 276.5zM338 371q0 -96 67.5 -153.5t157.5 -57.5q131 0 217 100q-120 129 -280 356q-162 -123 -162 -245zM508 1192q0 -106 86 -258q59 51 90 84t61.5 88t30.5 113q0 55 -34.5 95t-86.5 40q-55 0 -101 -44 t-46 -118z" />
<glyph unicode="'" horiz-adv-x="512" d="M168 1264v241h176v-241l-41 -281h-92z" />
<glyph unicode="(" horiz-adv-x="768" d="M96 563q0 156 35 297t80 235.5t117.5 188.5t115.5 137.5t109 100.5l123 -121q-49 -55 -79 -92t-85 -122t-88 -165t-59.5 -200t-26.5 -244q0 -147 27.5 -274.5t85 -233t103.5 -171t122 -155.5l-123 -131q-70 61 -112 103t-115.5 136.5t-116.5 186.5t-78 231.5t-35 292.5z " />
<glyph unicode=")" horiz-adv-x="768" d="M92 -266q49 55 79 92t85 122t88 165t59.5 199.5t26.5 244.5q0 147 -27.5 274t-85 232.5t-103.5 171t-122 156.5l123 131q70 -61 112 -103.5t115.5 -136.5t116.5 -186t78 -231.5t35 -293.5q0 -156 -35 -297t-80 -235t-117.5 -188.5t-115.5 -137.5t-109 -100z" />
<glyph unicode="*" horiz-adv-x="874" d="M92 1020q0 86 154 98q78 4 133 25v33q-61 20 -141 26q-145 8 -146 105q0 35 23.5 63.5t62.5 28.5t63.5 -19.5t61.5 -70.5q47 -68 90 -107l31 17q-10 47 -43 114q-37 80 -37 117q0 41 25.5 66.5t68.5 25.5q45 0 67.5 -28.5t22.5 -63.5q0 -41 -36 -115q-29 -61 -39 -116 l30 -17q37 35 82 94q76 100 125 101q41 0 66.5 -31t25.5 -68q0 -86 -155 -98q-82 -8 -131 -24v-33q49 -16 127 -25q33 -4 53 -7t49 -13.5t43 -30.5t14 -51q0 -35 -25.5 -65.5t-60.5 -30.5q-37 0 -64.5 21.5t-66.5 76.5q-35 51 -82 98l-30 -22q6 -41 43 -127q33 -66 32 -99 q0 -37 -22.5 -64.5t-69.5 -27.5t-69.5 25.5t-22.5 58.5q0 35 37 115q35 78 43 119l-31 22q-39 -35 -76 -88q-78 -109 -137 -108q-37 0 -62.5 30.5t-25.5 69.5z" />
<glyph unicode="+" horiz-adv-x="1366" d="M135 588v157h469v469h158v-469h469v-157h-469v-469h-158v469h-469z" />
<glyph unicode="," horiz-adv-x="575" d="M147 -328l132 328h-101v250h219v-250l-168 -328h-82z" />
<glyph unicode="-" horiz-adv-x="768" d="M162 492v198h444v-198h-444z" />
<glyph unicode="." horiz-adv-x="575" d="M178 0v250h219v-250h-219z" />
<glyph unicode="/" horiz-adv-x="1130" d="M0 0l965 1505h165l-964 -1505h-166z" />
<glyph unicode="0" horiz-adv-x="897" d="M61 733q0 274 39 436t125 252q96 100 226 101q127 0 219 -92q86 -86 126 -238t40 -440q0 -287 -42 -449t-143 -246q-81 -73 -198 -73q-244 0 -336 280q-55 166 -56 469zM272 621q0 -362 86 -437q42 -32 91 -32q94 0 133 94q43 102 43 579q0 369 -58 461q-41 68 -112 68 q-94 0 -131 -88q-27 -66 -39.5 -278t-12.5 -367z" />
<glyph unicode="1" horiz-adv-x="897" d="M119 1260v145q170 14 287 100h157v-1337h219v-168h-653v168h223v1092h-233z" />
<glyph unicode="2" horiz-adv-x="897" d="M80 0v147q115 219 295 474q209 293 209 520q0 100 -37 156.5t-101 56.5q-57 0 -104 -57.5t-61 -190.5l-168 12q20 172 102 288t246 116q162 0 248 -112t86 -265q0 -135 -74 -286.5t-217 -352.5q-144 -199 -203 -338h496v-168h-717z" />
<glyph unicode="3" horiz-adv-x="897" d="M61 367h181q27 -209 168 -209q78 0 129 68.5t51 187.5q0 297 -275 297h-73v168h127q66 0 111.5 26.5t66 68.5t29 79t8.5 73q0 207 -164 207q-43 0 -76 -14t-53.5 -41t-29.5 -45.5t-19 -44.5l-168 39q102 295 364 295q162 0 259.5 -103.5t97.5 -255.5q0 -35 -6.5 -70.5 t-28 -95t-76.5 -111.5t-137 -85q45 -20 76.5 -41t81 -66t77 -117.5t27.5 -164.5q0 -184 -111.5 -306t-277.5 -122q-27 0 -57.5 3t-86 25.5t-98.5 59.5t-78 114t-39 181z" />
<glyph unicode="4" horiz-adv-x="897" d="M66 360v168l395 977h252v-977h88v-168h-88v-360h-211v360h-436zM199 528h303v752h-4z" />
<glyph unicode="5" horiz-adv-x="897" d="M90 344l166 25q53 -211 180 -211q170 0 170 393q0 293 -149 293q-106 0 -154 -144l-151 31l59 774h596v-168h-455l-33 -422q113 88 211 89q109 0 189 -80q106 -106 106 -371q0 -115 -17 -210t-57 -179t-117 -132t-185 -48q-307 0 -359 360z" />
<glyph unicode="6" horiz-adv-x="897" d="M86 698q0 152 15.5 281t55.5 260t122.5 207t203.5 76q115 0 197 -71t117 -214l-164 -27q-12 37 -23.5 59.5t-43 49.5t-77.5 27q-98 0 -140 -113t-44 -379q90 84 205 84q141 0 230 -130t89 -327q0 -219 -105.5 -358t-264.5 -139q-217 0 -309 239q-63 166 -64 475zM289 514 q0 -74 5 -128t19.5 -112.5t47 -90t84 -31.5t88 29.5t54 79.5t24.5 99.5t7 104.5q0 145 -44 220t-119 75q-84 0 -162 -90q-4 -49 -4 -156z" />
<glyph unicode="7" horiz-adv-x="897" d="M90 1337v168h713v-151l-455 -1354h-211l484 1337h-531z" />
<glyph unicode="8" horiz-adv-x="897" d="M61 391q0 80 22.5 146.5t64.5 118t75 82t80 65.5q-195 170 -194 373q0 156 97 251t251 95q162 0 251 -105.5t89 -240.5q0 -209 -203 -373q113 -84 177.5 -194.5t64.5 -227.5q0 -164 -116 -280.5t-278 -116.5q-156 0 -268.5 115.5t-112.5 291.5zM272 373 q0 -98 48.5 -159.5t121.5 -61.5q82 0 132.5 69.5t50.5 165.5q0 70 -30 132.5t-61.5 96t-82.5 76.5q-51 -43 -80 -72.5t-64 -99t-35 -147.5zM272 1169q1 -149 179 -260q174 106 174 250q0 80 -50.5 144.5t-130.5 64.5q-78 0 -125 -61.5t-47 -137.5z" />
<glyph unicode="9" horiz-adv-x="897" d="M70 1028q0 205 102 349.5t268 144.5q92 0 161 -43t109 -109.5t63.5 -166t31.5 -196t8 -214.5q0 -809 -397 -809q-18 0 -37 2t-64 17t-79.5 43t-71.5 86t-55 138l165 29q29 -133 144 -133q102 0 141 123t37 362q-100 -80 -201 -80q-152 0 -238.5 135.5t-86.5 321.5z M281 1049q0 -299 168 -299q79 0 159 90q4 117 0 211t-16 161.5t-46 104.5t-93 37q-84 0 -128 -84t-44 -221z" />
<glyph unicode=":" horiz-adv-x="575" d="M178 0v250h219v-250h-219zM178 827v250h219v-250h-219z" />
<glyph unicode=";" horiz-adv-x="575" d="M147 -328l132 328h-101v250h219v-250l-168 -328h-82zM178 827v250h219v-250h-219z" />
<glyph unicode="&#x3c;" horiz-adv-x="1366" d="M135 596v143l1096 459v-170l-883 -360l883 -361v-170z" />
<glyph unicode="=" horiz-adv-x="1366" d="M135 354v158h1096v-158h-1096zM135 827v158h1096v-158h-1096z" />
<glyph unicode="&#x3e;" horiz-adv-x="1366" d="M135 137v170l883 359l-883 360v172l1096 -461v-141z" />
<glyph unicode="?" horiz-adv-x="854" d="M92 1223q35 160 133 241q92 78 217 78q141 0 228.5 -91t87.5 -230q0 -84 -32 -166t-62.5 -124t-83.5 -106q-82 -96 -105.5 -161.5t-23.5 -200.5h-195q10 287 170 483q14 14 18 23q117 145 117 252q0 51 -34.5 89t-92.5 38q-121 0 -149 -150zM242 0v250h217v-250h-217z " />
<glyph unicode="@" horiz-adv-x="1705" d="M96 631q0 172 50.5 327.5t145.5 283.5t255 204t360 76q180 0 320.5 -63.5t222.5 -168t123 -228.5t41 -259q0 -166 -55.5 -299t-138.5 -208t-166 -114t-154 -39q-57 0 -92 20.5t-44.5 40t-19.5 54.5q-70 -66 -118 -91.5t-119 -25.5q-164 0 -246 124t-82 302 q0 147 49 290.5t150.5 246t230.5 102.5q63 0 115.5 -29.5t72 -53t43.5 -60.5l17 113h198l-127 -791q-4 -25 -4 -37q0 -37 37 -37q98 0 201.5 137.5t103.5 354.5q0 254 -152.5 411.5t-402.5 157.5q-287 0 -476 -197.5t-189 -533.5q0 -334 187.5 -516t461.5 -182 q272 0 506 186h211q-100 -119 -199 -182q-238 -154 -516 -154q-336 0 -568.5 226.5t-232.5 611.5zM586 510q0 -92 39 -157.5t108 -65.5q115 0 170 145q78 211 78 418q0 78 -34 139.5t-107 61.5q-78 0 -134.5 -72t-79 -175.5t-31.5 -176t-9 -117.5z" />
<glyph unicode="A" horiz-adv-x="1153" d="M27 0l417 1505h267l415 -1505h-221l-110 406h-437l-112 -406h-219zM414 604h327l-161 592h-5z" />
<glyph unicode="B" horiz-adv-x="1153" d="M150 0v1505h450q203 0 328 -102.5t125 -284.5q0 -49 -11.5 -95t-40 -95t-86 -87t-139.5 -55v-4q289 -82 289 -366q0 -199 -132 -307.5t-358 -108.5h-425zM381 199h194q115 0 188 62.5t73 176.5q0 117 -76 179.5t-185 62.5h-194v-481zM381 879h211q100 0 164.5 55 t64.5 166q0 207 -221 207h-219v-428z" />
<glyph unicode="C" horiz-adv-x="1087" d="M86 754q0 283 61 452q119 315 443 316q96 0 172 -27t120 -76t72.5 -95t41 -109.5t15.5 -91t5 -66.5l-195 -17q-31 295 -221 295q-113 0 -190 -116q-84 -127 -84 -490q0 -201 32 -319q63 -223 226 -224q207 0 258 330l190 -39q-27 -197 -106 -305q-66 -90 -161 -139 t-200 -49q-178 0 -311 133q-80 80 -124 220t-44 417z" />
<glyph unicode="D" horiz-adv-x="1216" d="M150 0v1505h331q303 0 457 -149q188 -184 188 -588q0 -373 -145 -570.5t-481 -197.5h-350zM381 199h154q135 0 221 92q131 141 131 475q0 221 -58 344q-89 197 -329 197h-119v-1108z" />
<glyph unicode="E" horiz-adv-x="1024" d="M154 0v1505h753v-198h-522v-445h406v-198h-406v-465h571v-199h-802z" />
<glyph unicode="F" d="M145 0v1505h754v-198h-522v-447h366v-198h-366v-662h-232z" />
<glyph unicode="G" horiz-adv-x="1153" d="M82 745q0 272 61 447q121 330 443 330q236 0 356 -172q78 -113 94 -301l-205 -27q-16 313 -243 313q-84 0 -139.5 -48t-82 -138t-35.5 -181t-9 -214q0 -217 32 -340q61 -227 230 -228q57 0 109 29t81 76q43 70 49 215h-192v190h422v-696h-148l-41 156 q-145 -172 -332 -172q-143 0 -262 118q-90 90 -139 237.5t-49 405.5z" />
<glyph unicode="H" horiz-adv-x="1173" d="M141 0v1505h232v-631h428v631h231v-1505h-231v676h-428v-676h-232z" />
<glyph unicode="I" horiz-adv-x="555" d="M162 0v1505h231v-1505h-231z" />
<glyph unicode="J" horiz-adv-x="768" d="M23 14l43 185q2 0 5 -1t8 -2t11 -1q74 -16 105 -17q18 0 36.5 3t51 17.5t56 40t42 78t18.5 121.5v1067h232v-1081q0 -213 -107 -320q-128 -120 -322 -120h-3q-92 0 -176 30z" />
<glyph unicode="K" horiz-adv-x="1193" d="M150 0v1505h231v-694h4l487 694h248l-387 -553l436 -952h-225l-348 758l-215 -303v-455h-231z" />
<glyph unicode="L" horiz-adv-x="1003" d="M150 0v1505h231v-1306h561v-199h-792z" />
<glyph unicode="M" horiz-adv-x="1515" d="M150 0v1505h407l197 -1030h4l198 1030h408v-1505h-231v1419h-5l-272 -1419h-201l-270 1419h-4v-1419h-231z" />
<glyph unicode="N" horiz-adv-x="1280" d="M158 0v1505h325l437 -1124h4v1124h200v-1505h-250l-512 1315h-4v-1315h-200z" />
<glyph unicode="O" horiz-adv-x="1216" d="M90 743q0 332 98 523q129 256 424 256q279 0 410 -244q104 -195 104 -522q0 -307 -86 -496q-127 -276 -432 -276q-262 0 -393 204q-125 197 -125 555zM330 754q0 -311 66.5 -444.5t207.5 -133.5q66 0 113 23.5t88 85t61.5 181.5t20.5 296q0 125 -11.5 219t-40 179 t-85 130t-140.5 45q-154 0 -217 -148.5t-63 -432.5z" />
<glyph unicode="P" horiz-adv-x="1130" d="M141 0v1505h482q197 0 311.5 -122.5t114.5 -309.5q0 -205 -116 -322.5t-286 -117.5h-274v-633h-232zM373 831h184q260 0 260 242q0 111 -63.5 172.5t-153.5 61.5h-227v-476z" />
<glyph unicode="Q" horiz-adv-x="1193" d="M82 754q0 768 520 768q129 0 225.5 -54.5t148.5 -132.5t85 -188.5t42 -200.5t9 -190q0 -477 -205 -658q-76 -66 -200 -98q4 -86 64 -136t224 -50h142v-166h-166q-145 0 -242.5 32.5t-141.5 91t-59.5 110.5t-17.5 118q-88 10 -157.5 51t-112.5 93.5t-76 128t-47.5 137 t-23.5 140.5t-10 118t-1 86zM322 754q0 -295 63.5 -436.5t206.5 -141.5q145 0 212.5 133t67.5 455q0 180 -22.5 301t-85 195.5t-164.5 74.5q-154 0 -216 -148.5t-62 -432.5z" />
<glyph unicode="R" horiz-adv-x="1110" d="M143 0v1505h424q205 0 334 -99t129 -308q0 -256 -227 -375l239 -723h-223l-223 666h-221v-666h-232zM375 864h145q127 0 203 56.5t76 177.5q0 104 -62.5 156.5t-154.5 52.5h-207v-443z" />
<glyph unicode="S" horiz-adv-x="1044" d="M63 387l191 43q23 -72 57.5 -125t65.5 -77.5t68.5 -39t54 -16.5t32.5 -2q86 0 147.5 59.5t61.5 143.5q0 55 -32.5 103t-68.5 76t-112 75q-70 45 -105.5 69.5t-103 81t-103.5 104.5t-66.5 119.5t-30.5 145.5q0 152 109.5 263.5t295.5 111.5q94 0 171 -30t120 -66.5t78 -96 t47.5 -91.5t24.5 -77l-191 -51q-74 217 -239 217q-78 0 -131.5 -51t-53.5 -125q0 -72 61.5 -136.5t231.5 -172.5q86 -55 135 -91t102.5 -91.5t77 -118t23.5 -138.5q0 -182 -125 -300.5t-324 -118.5q-231 0 -360 159q-74 92 -109 244z" />
<glyph unicode="T" horiz-adv-x="1110" d="M55 1307v198h1000v-198h-385v-1307h-232v1307h-383z" />
<glyph unicode="U" horiz-adv-x="1259" d="M141 442v1063h232v-1022q0 -131 60.5 -214t195.5 -83q131 0 194.5 79t63.5 206v1034h231v-1063q0 -221 -123 -344q-114 -114 -354 -114h-4q-260 0 -383 125q-57 59 -85 154t-28 179z" />
<glyph unicode="V" horiz-adv-x="1087" d="M27 1505h219l295 -1261h4l297 1261h219l-359 -1505h-317z" />
<glyph unicode="W" horiz-adv-x="1409" d="M27 1505h215l178 -997h4l180 997h203l178 -997h4l180 997h213l-272 -1505h-201l-200 1128h-4l-205 -1128h-203z" />
<glyph unicode="X" horiz-adv-x="1087" d="M76 0l348 764l-336 741h246l209 -479l209 479h245l-335 -741l348 -764h-246l-221 500l-221 -500h-246z" />
<glyph unicode="Y" horiz-adv-x="1067" d="M33 1505h229l270 -620l275 620h229l-389 -880v-625h-231v625z" />
<glyph unicode="Z" horiz-adv-x="917" d="M68 0v152l510 1155h-453v198h725v-104l-531 -1202h523v-199h-774z" />
<glyph unicode="[" horiz-adv-x="768" d="M150 -358v1863h530v-159h-307v-1545h307v-159h-530z" />
<glyph unicode="\" horiz-adv-x="1130" d="M0 1505h166l964 -1505h-165z" />
<glyph unicode="]" horiz-adv-x="768" d="M88 -199h307v1545h-307v159h530v-1863h-530v159z" />
<glyph unicode="^" horiz-adv-x="1024" d="M86 702l352 803h146l354 -803h-180l-248 598l-240 -598h-184z" />
<glyph unicode="_" horiz-adv-x="1024" d="M-12 -154h1048v-102h-1048v102z" />
<glyph unicode="`" horiz-adv-x="681" d="M37 1505h254l209 -321h-76z" />
<glyph unicode="a" horiz-adv-x="917" d="M70 250q0 96 43 170t127 125t166.5 82.5t201.5 62.5v70q0 78 -45 124t-110 46q-131 0 -187 -150l-164 64q82 250 365 250q154 0 247 -78t93 -219v-637q0 -45 4 -103q0 -8 1 -21t2 -22.5t1 -13.5h-174l-33 129q-135 -145 -280 -145q-37 0 -76 12t-83 39.5t-71.5 83 t-27.5 131.5zM244 256q0 -55 41 -91t96 -36q80 0 153.5 70.5t73.5 150.5v203q-51 -16 -82.5 -27.5t-92 -41t-96.5 -58.5t-64.5 -74t-28.5 -96z" />
<glyph unicode="b" horiz-adv-x="980" d="M102 0q29 242 29 356v1170h199v-641h4q104 209 266 209q106 0 184 -82q121 -127 121 -434q0 -279 -75.5 -436.5t-221.5 -157.5q-150 0 -278 184l-49 -168h-179zM330 328q0 -12 28 -64q66 -98 160 -98q53 0 89 31.5t54.5 91t25.5 127t7 159.5q0 344 -168 345 q-76 0 -136 -71t-60 -116v-405z" />
<glyph unicode="c" horiz-adv-x="874" d="M72 512q0 582 379 582q27 0 50 -2t74.5 -19.5t89 -47.5t71.5 -95.5t40 -155.5l-180 -20q-31 180 -143 180q-51 0 -95 -45q-75 -83 -75 -389v-8q0 -334 174 -334q123 0 188 194l176 -26q-20 -152 -117.5 -247t-238.5 -95q-166 0 -270 104q-123 123 -123 424z" />
<glyph unicode="d" horiz-adv-x="980" d="M76 578q0 307 121 434q78 82 184 82q162 0 266 -209h4v641h199v-1170q0 -115 29 -356h-179l-49 168q-129 -184 -278 -184q-145 0 -221 157.5t-76 436.5zM287 575q0 -92 7 -159.5t25.5 -127t54.5 -91t89 -31.5q94 0 160 98q28 52 28 64v405q0 45 -60.5 116t-135.5 71 q-168 0 -168 -345z" />
<glyph unicode="e" horiz-adv-x="917" d="M68 535q0 367 194 499q84 59 201 60q80 0 147.5 -29t108.5 -74t62.5 -78.5t33.5 -62.5q43 -108 43 -306v-34h-579v-14q0 -330 186 -330q129 0 190 168l203 -45q-29 -92 -81 -156.5t-111.5 -94.5t-106.5 -42t-90 -12q-68 0 -130.5 23.5t-128 78.5t-104 171t-38.5 278z M279 655h356q-10 272 -176 273q-49 0 -85 -21.5t-53.5 -49.5t-27.5 -73t-12 -68.5t-2 -60.5z" />
<glyph unicode="f" horiz-adv-x="598" d="M37 903v174h143v144q0 102 26.5 169.5t75 98.5t95.5 42t110 11q47 0 91 -6v-170q-133 -2 -166 -47t-33 -203v-39h186v-174h-186v-903h-199v903h-143z" />
<glyph unicode="g" d="M55 -188q0 61 39 112t129 119q16 14 29 23q-137 55 -158 116q-4 12 -4 27q0 82 170 168q-180 127 -180 328q0 150 113.5 269.5t279.5 119.5q135 0 262 -95q53 61 89 79q32 16 89 16h13v-156h-7q-54 0 -108 -27q61 -100 61 -202q0 -158 -114.5 -276t-280.5 -118 q-63 0 -135 23q-66 -45 -66 -80q0 -47 189 -72q285 -37 369 -116q84 -78 84 -174.5t-78 -174.5q-108 -108 -378 -108h-5q-252 0 -353 92q-49 43 -49 107zM217 -127q0 -100 211 -100q309 0 309 121q0 41 -45 63.5t-182 44.5q-68 11 -150 27q-143 -84 -143 -156zM291 707 q0 -104 49 -168t135 -64q96 0 141.5 68.5t45.5 163.5q0 92 -43.5 159.5t-141.5 67.5q-94 0 -140 -65.5t-46 -161.5z" />
<glyph unicode="h" horiz-adv-x="1024" d="M145 0v1526h199v-604q160 172 309 172q104 0 175 -66.5t71 -193.5v-834h-199v764q0 43 -31.5 88t-95.5 45q-113 0 -229 -176v-721h-199z" />
<glyph unicode="i" horiz-adv-x="512" d="M158 0v1077h198v-1077h-198zM158 1298v228h198v-228h-198z" />
<glyph unicode="j" horiz-adv-x="534" d="M-57 -201q55 -10 71 -10q78 0 121 48t43 128v1112h199v-1089q0 -57 -5 -102.5t-22.5 -98.5t-48.5 -89t-88 -60.5t-135 -24.5q-61 0 -135 16v170zM178 1296v230h199v-230h-199z" />
<glyph unicode="k" horiz-adv-x="917" d="M135 0v1526h199v-862h4l283 413h206l-272 -387l330 -690h-187l-254 530l-110 -159v-371h-199z" />
<glyph unicode="l" horiz-adv-x="512" d="M158 0v1526h198v-1526h-198z" />
<glyph unicode="m" horiz-adv-x="1449" d="M131 0v1077h199v-151h4q35 49 61.5 78.5t84 59.5t126.5 30q59 0 101.5 -16.5t65 -48.5t32.5 -52.5t18 -50.5q121 168 287 168q121 0 178.5 -81.5t57.5 -183.5v-829h-199v745q0 76 -31 121t-88 45q-43 0 -88 -27.5t-58.5 -42t-43.5 -48.5v-793h-199v745q0 72 -32 119 t-91 47q-51 0 -94 -35.5t-62 -66.5q-4 -8 -12 -23.5t-13 -25.5t-5 -15v-745h-199z" />
<glyph unicode="n" horiz-adv-x="980" d="M125 0v1077h199v-159q47 49 79.5 77.5t99 63.5t132.5 35q27 0 54.5 -5.5t63 -22.5t62.5 -46t46.5 -81t19.5 -120v-819h-199v764q0 43 -32 88t-95 45q-129 0 -231 -182v-715h-199z" />
<glyph unicode="o" d="M78 532q0 319 137 453q113 109 262 109q158 0 262 -103q143 -137 144 -446q0 -369 -195 -498q-41 -27 -94 -42t-86 -17l-35 -4q-147 0 -256 106q-139 135 -139 442zM289 547q0 -395 184 -395q61 0 103 31.5t61.5 90t27 117t7.5 135.5q0 205 -46 302.5t-149 97.5 q-106 0 -147 -99.5t-41 -279.5z" />
<glyph unicode="p" horiz-adv-x="980" d="M127 -371v1448h199v-196h4q104 213 268 213q104 0 188 -84q117 -117 117 -437q0 -41 -2 -77.5t-9 -114.5t-27.5 -139.5t-50.5 -124t-85 -98t-124.5 -35.5t-133 41t-92.5 76.5t-49 72.5h-4v-545h-199zM326 336q0 -20 61 -109q16 -25 57 -43t80 -18q41 0 71 21.5t47 62.5 t28.5 79t15.5 96t5 88t1 77q0 334 -172 334q-53 0 -101 -43t-70.5 -84.5t-22.5 -55.5v-405z" />
<glyph unicode="q" horiz-adv-x="980" d="M78 565q0 305 106 428q88 100 195 101q159 0 274 -213l47 196h152v-1448h-199v537h-4q-117 -182 -274 -182q-80 0 -139.5 49t-89 114.5t-46 157.5t-19.5 146.5t-3 113.5zM289 559q0 -395 170 -395q78 0 136 63.5t58 100.5v409q0 10 -6 23q-80 160 -186 160q-59 0 -97 -36 t-52.5 -103.5t-18.5 -111.5t-4 -110z" />
<glyph unicode="r" horiz-adv-x="681" d="M127 0v1077h199v-168h4q66 106 148.5 143.5t205.5 41.5v-199q-80 -2 -134 -16.5t-94 -51t-60.5 -68.5t-59.5 -100q-10 -20 -10 -41v-618h-199z" />
<glyph unicode="s" horiz-adv-x="788" d="M51 303l166 43q39 -207 184 -207q61 0 106.5 38t45.5 102q0 49 -32 88t-64.5 56t-89.5 40q-295 117 -295 323q0 115 91 211.5t232 96.5q66 0 120 -22.5t85 -49.5t56.5 -72t35 -67.5t19.5 -57.5l-168 -41q-47 166 -158 166q-53 0 -91 -40t-38 -93q0 -61 45 -99t141 -79 q59 -25 96 -45.5t90.5 -61t81 -101t27.5 -136.5q0 -127 -94 -219t-246 -92q-78 0 -141 27.5t-97 64.5t-59.5 88t-34 79.5t-14.5 59.5z" />
<glyph unicode="t" horiz-adv-x="598" d="M43 903v174h137v393h199v-393h199v-174h-199v-629q0 -70 26.5 -96t112.5 -26q25 0 80 6v-158q-102 -18 -156 -18q-119 0 -190.5 59t-71.5 168v694h-137z" />
<glyph unicode="u" horiz-adv-x="1003" d="M109 250v827h198v-733q0 -72 36 -116t89 -44q68 0 122 47.5t110 126.5v719h198v-1077h-198v162q-156 -178 -312 -178q-109 0 -176 73.5t-67 192.5z" />
<glyph unicode="v" horiz-adv-x="897" d="M31 1077h196l217 -792h5l221 792h194l-301 -1077h-235z" />
<glyph unicode="w" horiz-adv-x="1323" d="M27 1077h194l193 -768h4l174 768h143l168 -760h4l195 760h194l-274 -1077h-195l-161 729h-4l-164 -729h-199z" />
<glyph unicode="x" horiz-adv-x="874" d="M31 0l301 582l-252 495h211l147 -286l152 286h211l-254 -495l297 -582h-215l-191 375l-192 -375h-215z" />
<glyph unicode="y" horiz-adv-x="897" d="M31 1077h200l213 -753h5l217 753h198l-321 -1106q-35 -119 -84 -194.5t-117 -109.5t-129 -44t-156 -10v147q137 6 191.5 45t97.5 166z" />
<glyph unicode="z" horiz-adv-x="831" d="M53 0v135l469 768h-440v174h694v-119l-473 -784h473v-174h-723z" />
<glyph unicode="{" horiz-adv-x="747" d="M66 444v199q137 8 175 93t38 292q0 168 16 252t74 141q55 57 120.5 70.5t204.5 13.5v-196q-115 0 -143 -17q-66 -39 -66 -293q0 -197 -36.5 -294t-157.5 -162q127 -61 162.5 -178t35.5 -379q0 -135 35 -171t170 -36v-197q-141 0 -206.5 13.5t-122.5 70.5 q-55 57 -70.5 140t-15.5 241q0 88 -2.5 136t-13.5 104.5t-33.5 84t-63.5 48t-100 24.5z" />
<glyph unicode="|" horiz-adv-x="1110" d="M475 -371v1897h160v-1897h-160z" />
<glyph unicode="}" horiz-adv-x="747" d="M53 -221q115 0 144 16q66 39 65 293q0 197 37 294t158 163q-127 61 -163 178t-36 379q0 135 -35 171t-170 36v196q98 0 142.5 -3t95.5 -21.5t92 -59.5q57 -57 71.5 -138t14.5 -243q0 -88 2 -136t13.5 -104.5t34 -84t63.5 -48t100 -24.5v-199q-137 -8 -175 -93t-38 -292 q0 -168 -16.5 -251.5t-73.5 -141t-123 -71t-203 -13.5v197z" />
<glyph unicode="~" horiz-adv-x="1343" d="M127 528v168q156 129 303 129q92 0 291 -94q141 -66 205 -65q131 0 291 143v-170q-154 -131 -291 -131q-63 0 -125 20.5t-187 79.5q-125 61 -192 62q-135 -1 -295 -142z" />
<glyph unicode="&#xa0;" horiz-adv-x="448" d="M369 0z" />
<glyph unicode="&#xa1;" horiz-adv-x="575" d="M156 -449l57 1061h152l57 -1061h-266zM178 827v250h217v-250h-217z" />
<glyph unicode="&#xa2;" horiz-adv-x="854" d="M109 453q0 543 321 542q33 0 78 -10l76 361h92l-84 -398q104 -75 127 -243l-148 -17q-4 20 -9 43t-7 31h-4l-135 -645q16 -4 26 -4q123 0 174 194l138 -24q-8 -41 -15.5 -67t-31 -77t-53 -82.5t-83 -57.5t-120.5 -26q-8 0 -64 7l-74 -351h-90l78 373q-193 100 -192 451z M279 422q0 -195 57 -250l143 676q-37 12 -49 12q-59 0 -88 -53q-63 -113 -63 -385z" />
<glyph unicode="&#xa3;" horiz-adv-x="854" d="M41 193q0 78 39 135t119 57q45 0 106 -29q6 154 -35 357h-164v168h142q-23 184 -23 262q0 170 71 274.5t202 104.5q268 0 264 -348l-172 10q4 92 -22.5 139t-65.5 47q-43 0 -65.5 -40t-22.5 -99q0 -72 24 -236l17 -114h180v-168h-160q10 -106 10 -197q0 -113 -30 -246 l22 -16q86 -63 127 -64q66 0 66 158h139q4 -152 -31 -244q-47 -121 -157 -120q-98 0 -238 131q-78 -131 -178 -131q-76 0 -120 59t-44 150zM135 186q0 -33 18.5 -56.5t47.5 -23.5q63 1 88 97q-66 57 -99 57q-25 0 -40 -22.5t-15 -51.5z" />
<glyph unicode="&#xa4;" horiz-adv-x="1409" d="M205 274l127 127q-84 129 -84 267q0 135 84 266l-127 127l104 106l129 -129q131 86 267 86q129 0 266 -86l129 129l104 -106l-129 -129q86 -123 86 -266q0 -137 -86 -265l129 -127l-104 -106l-129 127q-129 -86 -264 -86q-141 0 -269 86l-127 -127zM397 668 q0 -127 90.5 -218.5t217 -91.5t217 91.5t90.5 218.5t-90.5 217t-217 90t-217 -90t-90.5 -217z" />
<glyph unicode="&#xa5;" horiz-adv-x="1067" d="M33 375v123h383v127l-60 137h-323v123h270l-270 620h229l270 -620l275 620h229l-274 -620h274v-123h-327l-62 -137v-127h389v-123h-389v-375h-231v375h-383z" />
<glyph unicode="&#xa6;" horiz-adv-x="1110" d="M475 356h160v-727h-160v727zM475 799v727h160v-727h-160z" />
<glyph unicode="&#xa7;" d="M78 590q0 209 231 375q-141 135 -141 276q0 113 90 197t252 84q86 0 150.5 -24.5t98.5 -54.5t57.5 -78t28.5 -72.5t11 -61.5l-190 -21q-25 166 -164 166q-57 0 -95 -35.5t-38 -89.5q0 -49 30.5 -96t66.5 -79t114 -91q84 -68 122.5 -101.5t89 -91t71 -114.5t20.5 -129 q0 -227 -232 -371q41 -41 65.5 -69.5t51.5 -88t27 -120.5q0 -127 -95.5 -207t-253.5 -80q-293 0 -342 297l193 18q35 -164 164 -164q61 0 97 38t36 92q0 66 -47 119t-154 134q-84 66 -124 101t-93 93t-75.5 118.5t-22.5 130.5zM254 643q0 -63 37 -121.5t80 -97.5t155 -131 l41 -35q141 113 142 242q0 76 -47.5 140t-188.5 179l-80 66q-139 -127 -139 -242z" />
<glyph unicode="&#xa8;" horiz-adv-x="681" d="M66 1229v225h182v-225h-182zM434 1229v225h182v-225h-182z" />
<glyph unicode="&#xa9;" horiz-adv-x="1705" d="M86 755.5q0 317.5 224.5 542t541.5 224.5t542.5 -224.5t225.5 -542t-225.5 -542.5t-542.5 -225t-541.5 225t-224.5 542.5zM238 756q0 -256 180 -436.5t436 -180.5q254 0 434 181.5t180 435.5t-179 434t-435 180t-436 -180t-180 -434zM477 750q0 195 102.5 312.5 t286.5 117.5q246 0 334 -244l-162 -37q-51 139 -178 139q-63 0 -107 -28.5t-64.5 -76.5t-28 -90t-7.5 -87q0 -150 57.5 -217.5t137.5 -67.5q141 0 190 170l162 -53q-43 -141 -134 -200.5t-202 -59.5q-156 0 -271.5 103.5t-115.5 318.5z" />
<glyph unicode="&#xaa;" horiz-adv-x="618" d="M61 989q0 59 25 105.5t78 79t101 52t128 44.5q6 154 -100 153q-68 0 -115 -92l-96 35q10 27 18.5 42t34 47t68.5 49.5t102 17.5q100 0 157.5 -50t57.5 -126v-519h-106l-21 78q-96 -88 -172 -88q-63 0 -111.5 45t-48.5 127zM160 991q0 -37 25.5 -60.5t58.5 -23.5 q57 0 103 46.5t46 105.5v121q-233 -72 -233 -189z" />
<glyph unicode="&#xab;" d="M72 543l237 534h205l-238 -534l238 -543h-205zM461 543l237 534h205l-237 -534l237 -543h-205z" />
<glyph unicode="&#xac;" horiz-adv-x="1366" d="M135 827v158h1096v-631h-156v473h-940z" />
<glyph unicode="&#xad;" horiz-adv-x="768" d="M162 492v198h444v-198h-444z" />
<glyph unicode="&#xae;" horiz-adv-x="1705" d="M86 755.5q0 317.5 224.5 542t541.5 224.5t542.5 -224.5t225.5 -542t-225.5 -542.5t-542.5 -225t-541.5 225t-224.5 542.5zM238 756q0 -256 180 -436.5t436 -180.5q254 0 434 181.5t180 435.5t-179 434t-435 180t-436 -180t-180 -434zM508 346v813h164q236 0 299 -7 t108 -42q86 -70 86 -180q0 -80 -52 -145.5t-167 -82.5v-4q55 -18 85 -53t89 -137l94 -162h-202l-68 131q-68 131 -115 167t-114 36h-43v-334h-164zM672 807h67q72 0 105 2t73.5 12t57 34t16.5 65q0 33 -14 54t-32.5 32.5t-57.5 16.5t-66.5 6t-83.5 1h-65v-223z" />
<glyph unicode="&#xaf;" horiz-adv-x="681" d="M74 1264v159h534v-159h-534z" />
<glyph unicode="&#xb0;" horiz-adv-x="811" d="M109 1225q0 123 87 210t209.5 87t209.5 -87t87 -210t-87 -210t-209.5 -87t-209.5 87t-87 210zM244 1225q0 -66 47 -114t114.5 -48t114.5 48t47 114q0 68 -47 113.5t-114.5 45.5t-114.5 -46t-47 -113z" />
<glyph unicode="&#xb1;" horiz-adv-x="1366" d="M135 0v158h1096v-158h-1096zM135 758v157h469v469h158v-469h469v-157h-469v-469h-158v469h-469z" />
<glyph unicode="&#xb2;" horiz-adv-x="661" d="M102 739v92q63 104 174 240q123 147 123 248q0 90 -69 90q-68 0 -88 -121l-123 6q10 106 67.5 167t151.5 61q100 0 155.5 -59.5t55.5 -141.5q0 -121 -176 -324q-72 -86 -109 -145h285v-113h-447z" />
<glyph unicode="&#xb3;" horiz-adv-x="661" d="M90 950h129q12 -104 88 -104q45 0 69.5 31.5t24.5 78.5q0 135 -149 136h-55v110h86q70 0 93 36t23 75q0 88 -86 88q-31 0 -51 -13.5t-27.5 -24.5t-19.5 -36l-123 25q63 170 234 170q100 0 160.5 -55.5t60.5 -137.5q0 -111 -119 -180q127 -61 127 -191q0 -94 -68.5 -160.5 t-173.5 -66.5q-147 0 -202 115q-17 34 -21 104z" />
<glyph unicode="&#xb4;" horiz-adv-x="681" d="M182 1184l209 321h254l-387 -321h-76z" />
<glyph unicode="&#xb6;" horiz-adv-x="1110" d="M-6 1083q0 104 46 206t144 153q57 31 112.5 45t91.5 16t108 2h616v-215h-129v-1661h-201v1661h-186v-1661h-201v1051q-117 8 -200.5 50t-124.5 106.5t-58.5 125t-17.5 121.5z" />
<glyph unicode="&#xb7;" horiz-adv-x="575" d="M178 629v250h219v-250h-219z" />
<glyph unicode="&#xb8;" horiz-adv-x="681" d="M27 -287q127 -10 176 -10q178 0 178 94q0 45 -39 64.5t-86 19.5q-72 0 -133 -18l24 98q90 23 172 23q106 0 179 -50.5t73 -138.5q0 -109 -103 -162t-251 -53q-116 1 -190 17v116z" />
<glyph unicode="&#xb9;" horiz-adv-x="661" d="M125 1364v98q104 8 178 51h107v-661h131v-113h-410v113h131v512h-137z" />
<glyph unicode="&#xba;" horiz-adv-x="618" d="M53 1176q0 33 2 60.5t15.5 85.5t38 97t77 71t123.5 32q74 0 126 -32t77 -72t38 -98t15 -86t2 -62.5t-2 -62.5t-15 -87t-38 -99t-77 -72t-124 -32q-102 0 -172 70q-86 86 -86 287zM184 1180q0 -254 121 -254q129 0 129 237q0 260 -127 260q-123 0 -123 -243z" />
<glyph unicode="&#xbb;" d="M57 0l238 535l-238 542h205l238 -542l-238 -535h-205zM446 0l238 535l-238 542h205l238 -542l-238 -535h-205z" />
<glyph unicode="&#xbc;" horiz-adv-x="1728" d="M121 563v105h141v686h-127v92q74 4 111.5 20.5t66.5 59.5h84v-858h133v-105h-409zM305 -154l965 1659l114 -63l-962 -1665zM985 -29v133l295 660h197v-660h90v-133h-90v-184h-134v184h-358zM1135 104h208v469h-4z" />
<glyph unicode="&#xbd;" horiz-adv-x="1728" d="M121 563v105h141v686h-127v92q74 4 111.5 20.5t66.5 59.5h84v-858h133v-105h-409zM305 -154l965 1659l114 -63l-962 -1665zM1085 -113q0 53 69 170t153 205q135 135 135 256q0 45 -28 82t-81 37q-25 0 -47 -8t-45.5 -46t-26.5 -104h-114q2 84 28.5 144.5t66.5 88t75 39 t65 11.5q100 0 170 -66.5t70 -171.5q0 -131 -158 -303q0 -2 -8 -10t-8 -10q-76 -84 -115 -144.5t-72 -152.5h330v-105h-459v88z" />
<glyph unicode="&#xbe;" horiz-adv-x="1728" d="M121 754l108 28q8 -29 15.5 -45t33 -39.5t62.5 -23.5q49 0 76.5 39t27.5 106q0 53 -17 91t-37.5 56.5t-55.5 29t-54.5 11.5t-50.5 1v106q227 8 228 186q0 59 -32 93t-77 34q-76 0 -119 -102l-108 27q61 180 235 180q102 0 168 -65.5t66 -163.5q0 -154 -144 -226 q29 -12 46.5 -23.5t47 -39t45 -76.5t15.5 -115q0 -139 -70.5 -204.5t-167.5 -65.5q-23 0 -45 4t-65 20.5t-78 61.5t-53 115zM305 -154l965 1659l114 -63l-962 -1665zM985 -29v133l295 660h197v-660h90v-133h-90v-184h-134v184h-358zM1135 104h208v469h-4z" />
<glyph unicode="&#xbf;" horiz-adv-x="854" d="M96 -143q0 84 32 165.5t62.5 123.5t83.5 106q82 96 105.5 161.5t23.5 200.5h195q-10 -287 -170 -483q-14 -14 -18 -22q-117 -145 -117 -252q0 -51 33.5 -89t93.5 -38q121 0 149 149l193 -24q-35 -160 -133 -242q-92 -78 -217 -78q-141 0 -228.5 91t-87.5 231zM395 827 v250h217v-250h-217z" />
<glyph unicode="&#xc0;" horiz-adv-x="1153" d="M27 0l417 1505h267l415 -1505h-221l-110 406h-437l-112 -406h-219zM334 1917h254l209 -321h-76zM414 604h327l-161 592h-5z" />
<glyph unicode="&#xc1;" horiz-adv-x="1153" d="M27 0l417 1505h267l415 -1505h-221l-110 406h-437l-112 -406h-219zM414 604h327l-161 592h-5zM418 1596l209 321h254l-387 -321h-76z" />
<glyph unicode="&#xc2;" horiz-adv-x="1153" d="M27 0l417 1505h267l415 -1505h-221l-110 406h-437l-112 -406h-219zM273 1598l239 319h125l244 -319h-78l-227 172l-225 -172h-78zM414 604h327l-161 592h-5z" />
<glyph unicode="&#xc3;" horiz-adv-x="1153" d="M27 0l417 1505h267l415 -1505h-221l-110 406h-437l-112 -406h-219zM259 1637q4 66 22 113.5t39.5 70.5t52.5 36t44.5 14t29.5 1q68 0 174 -49q70 -35 104 -35q66 0 82 84h86q-4 -121 -59 -178t-135 -57q-63 0 -166 51q-76 35 -107 35q-63 0 -81 -86h-86zM414 604h327 l-161 592h-5z" />
<glyph unicode="&#xc4;" horiz-adv-x="1153" d="M27 0l417 1505h267l415 -1505h-221l-110 406h-437l-112 -406h-219zM302 1641v225h182v-225h-182zM414 604h327l-161 592h-5zM670 1641v225h182v-225h-182z" />
<glyph unicode="&#xc5;" horiz-adv-x="1153" d="M27 0l417 1505h267l415 -1505h-221l-110 406h-437l-112 -406h-219zM375 1801q0 82 59.5 141t141.5 59t141.5 -59.5t59.5 -140.5q0 -84 -59.5 -143.5t-141.5 -59.5t-141.5 59.5t-59.5 143.5zM414 604h327l-161 592h-5zM459 1800.5q0 -49.5 34 -84t83 -34.5t83 34.5t34 84 t-34 83t-83 33.5t-83 -33.5t-34 -83z" />
<glyph unicode="&#xc6;" horiz-adv-x="1366" d="M27 0l342 1505h917v-196h-481v-451h348v-194h-348v-465h500v-199h-730v408h-253l-93 -408h-202zM369 596h206v713h-49z" />
<glyph unicode="&#xc7;" horiz-adv-x="1087" d="M84 760q0 250 53 420t193 266q111 76 256 76q242 0 356 -176q68 -103 76 -293l-195 -17q-33 295 -221 295q-276 0 -276 -602q0 -547 260 -547q209 0 258 330l188 -43q-27 -219 -137 -342q-43 -47 -95 -78t-83 -41t-86 -22l-29 -49q178 -20 178 -158q0 -86 -81 -126 t-189.5 -40t-296.5 49l59 94l68 -14q92 -20 141 -21q100 0 101 58q0 29 -26 44t-55.5 18t-82.5 3l86 142q-111 18 -191 76.5t-123 131t-67.5 177t-31.5 191.5t-7 198z" />
<glyph unicode="&#xc8;" horiz-adv-x="1024" d="M154 0v1505h753v-198h-522v-445h406v-198h-406v-465h571v-199h-802zM270 1917h254l209 -321h-76z" />
<glyph unicode="&#xc9;" horiz-adv-x="1024" d="M154 0v1505h753v-198h-522v-445h406v-198h-406v-465h571v-199h-802zM354 1596l209 321h254l-387 -321h-76z" />
<glyph unicode="&#xca;" horiz-adv-x="1024" d="M154 0v1505h753v-198h-522v-445h406v-198h-406v-465h571v-199h-802zM209 1598l239 319h125l244 -319h-78l-227 172l-225 -172h-78z" />
<glyph unicode="&#xcb;" horiz-adv-x="1024" d="M154 0v1505h753v-198h-522v-445h406v-198h-406v-465h571v-199h-802zM238 1641v225h182v-225h-182zM606 1641v225h182v-225h-182z" />
<glyph unicode="&#xcc;" horiz-adv-x="555" d="M-26 1917h254l209 -321h-76zM162 0v1505h231v-1505h-231z" />
<glyph unicode="&#xcd;" horiz-adv-x="555" d="M119 1596l209 321h254l-387 -321h-76zM162 0v1505h231v-1505h-231z" />
<glyph unicode="&#xce;" horiz-adv-x="555" d="M-26 1598l239 319h125l244 -319h-78l-227 172l-225 -172h-78zM162 0v1505h231v-1505h-231z" />
<glyph unicode="&#xcf;" horiz-adv-x="555" d="M3 1641v225h182v-225h-182zM162 0v1505h231v-1505h-231zM371 1641v225h182v-225h-182z" />
<glyph unicode="&#xd0;" horiz-adv-x="1216" d="M-6 672v159h156v674h331q303 0 457 -149q188 -184 188 -588q0 -373 -145 -570.5t-481 -197.5h-350v672h-156zM381 199h154q135 0 221 92q131 141 131 475q0 221 -58 344q-89 197 -329 197h-119v-476h254v-159h-254v-473z" />
<glyph unicode="&#xd1;" horiz-adv-x="1280" d="M158 0v1505h325l437 -1124h4v1124h200v-1505h-250l-512 1315h-4v-1315h-200zM363 1637q4 66 22 113.5t39.5 70.5t52.5 36t44.5 14t29.5 1q68 0 174 -49q70 -35 104 -35q66 0 82 84h86q-4 -121 -59 -178t-135 -57q-63 0 -166 51q-76 35 -107 35q-63 0 -81 -86h-86z" />
<glyph unicode="&#xd2;" horiz-adv-x="1216" d="M90 743q0 332 98 523q129 256 424 256q279 0 410 -244q104 -195 104 -522q0 -307 -86 -496q-127 -276 -432 -276q-262 0 -393 204q-125 197 -125 555zM330 754q0 -311 66.5 -444.5t207.5 -133.5q66 0 113 23.5t88 85t61.5 181.5t20.5 296q0 125 -11.5 219t-40 179 t-85 130t-140.5 45q-154 0 -217 -148.5t-63 -432.5zM367 1917h254l209 -321h-76z" />
<glyph unicode="&#xd3;" horiz-adv-x="1216" d="M90 743q0 332 98 523q129 256 424 256q279 0 410 -244q104 -195 104 -522q0 -307 -86 -496q-127 -276 -432 -276q-262 0 -393 204q-125 197 -125 555zM330 754q0 -311 66.5 -444.5t207.5 -133.5q66 0 113 23.5t88 85t61.5 181.5t20.5 296q0 125 -11.5 219t-40 179 t-85 130t-140.5 45q-154 0 -217 -148.5t-63 -432.5zM450 1596l209 321h254l-387 -321h-76z" />
<glyph unicode="&#xd4;" horiz-adv-x="1216" d="M90 743q0 332 98 523q129 256 424 256q279 0 410 -244q104 -195 104 -522q0 -307 -86 -496q-127 -276 -432 -276q-262 0 -393 204q-125 197 -125 555zM305 1598l239 319h125l244 -319h-78l-227 172l-225 -172h-78zM330 754q0 -311 66.5 -444.5t207.5 -133.5 q66 0 113 23.5t88 85t61.5 181.5t20.5 296q0 125 -11.5 219t-40 179t-85 130t-140.5 45q-154 0 -217 -148.5t-63 -432.5z" />
<glyph unicode="&#xd5;" horiz-adv-x="1216" d="M90 743q0 332 98 523q129 256 424 256q279 0 410 -244q104 -195 104 -522q0 -307 -86 -496q-127 -276 -432 -276q-262 0 -393 204q-125 197 -125 555zM291 1637q4 66 22 113.5t39.5 70.5t52.5 36t44.5 14t29.5 1q68 0 174 -49q70 -35 104 -35q66 0 82 84h86 q-4 -121 -59 -178t-135 -57q-63 0 -166 51q-76 35 -107 35q-63 0 -81 -86h-86zM330 754q0 -311 66.5 -444.5t207.5 -133.5q66 0 113 23.5t88 85t61.5 181.5t20.5 296q0 125 -11.5 219t-40 179t-85 130t-140.5 45q-154 0 -217 -148.5t-63 -432.5z" />
<glyph unicode="&#xd6;" horiz-adv-x="1216" d="M90 743q0 332 98 523q129 256 424 256q279 0 410 -244q104 -195 104 -522q0 -307 -86 -496q-127 -276 -432 -276q-262 0 -393 204q-125 197 -125 555zM330 754q0 -311 66.5 -444.5t207.5 -133.5q66 0 113 23.5t88 85t61.5 181.5t20.5 296q0 125 -11.5 219t-40 179 t-85 130t-140.5 45q-154 0 -217 -148.5t-63 -432.5zM334 1641v225h182v-225h-182zM702 1641v225h182v-225h-182z" />
<glyph unicode="&#xd7;" horiz-adv-x="1366" d="M176 1063l111 111l397 -398l397 398l111 -111l-397 -397l395 -396l-111 -110l-395 395l-395 -395l-111 110l395 396z" />
<glyph unicode="&#xd8;" horiz-adv-x="1216" d="M20 133l140 166q-70 193 -70 446q0 113 11.5 211.5t45 207t90 184t152.5 125t225 49.5q84 0 153 -20.5t117 -59.5t71.5 -65.5t50.5 -65.5l112 137l88 -72l-147 -178q68 -190 67 -444q0 -106 -9 -198.5t-42 -202t-87 -187.5t-151.5 -130t-228.5 -52q-88 0 -156.5 19.5 t-115.5 56t-70.5 62t-50.5 64.5l-104 -125zM330 766q0 -142 14 -246l504 602q-20 74 -56 122t-77 64.5t-62.5 21.5t-42.5 5q-82 0 -139 -44t-87 -126t-42 -178t-12 -221zM371 375q53 -199 239 -199q158 0 217.5 148.5t59.5 453.5q-1 115 -13 199z" />
<glyph unicode="&#xd9;" horiz-adv-x="1259" d="M141 442v1063h232v-1022q0 -131 60.5 -214t195.5 -83q131 0 194.5 79t63.5 206v1034h231v-1063q0 -221 -123 -344q-115 -115 -358 -114q-260 0 -383 125q-57 59 -85 154t-28 179zM387 1917h254l209 -321h-76z" />
<glyph unicode="&#xda;" horiz-adv-x="1259" d="M141 442v1063h232v-1022q0 -131 60.5 -214t195.5 -83q131 0 194.5 79t63.5 206v1034h231v-1063q0 -221 -123 -344q-115 -115 -358 -114q-260 0 -383 125q-57 59 -85 154t-28 179zM471 1596l209 321h254l-387 -321h-76z" />
<glyph unicode="&#xdb;" horiz-adv-x="1259" d="M141 442v1063h232v-1022q0 -131 60.5 -214t195.5 -83q131 0 194.5 79t63.5 206v1034h231v-1063q0 -221 -123 -344q-115 -115 -358 -114q-260 0 -383 125q-57 59 -85 154t-28 179zM326 1598l239 319h125l244 -319h-78l-227 172l-225 -172h-78z" />
<glyph unicode="&#xdc;" horiz-adv-x="1259" d="M141 442v1063h232v-1022q0 -131 60.5 -214t195.5 -83q131 0 194.5 79t63.5 206v1034h231v-1063q0 -221 -123 -344q-115 -115 -358 -114q-260 0 -383 125q-57 59 -85 154t-28 179zM355 1641v225h182v-225h-182zM723 1641v225h182v-225h-182z" />
<glyph unicode="&#xdd;" horiz-adv-x="1067" d="M33 1505h229l270 -620l275 620h229l-389 -880v-625h-231v625zM375 1596l209 321h254l-387 -321h-76z" />
<glyph unicode="&#xde;" horiz-adv-x="1130" d="M141 0v1505h232v-319h250q197 0 311.5 -123t114.5 -309q0 -205 -116 -323t-286 -118h-274v-313h-232zM373 512h184q260 0 260 242q0 111 -63.5 172t-153.5 61h-227v-475z" />
<glyph unicode="&#xdf;" d="M137 0v1094q0 449 348 448q174 0 268.5 -97t94.5 -243q0 -80 -23.5 -142.5t-65.5 -100t-69.5 -55t-68.5 -36.5q43 -14 69.5 -26.5t72.5 -46t73.5 -77.5t49 -122t21.5 -178q0 -195 -81 -314.5t-214 -119.5q-84 0 -190 65l86 144q49 -27 90 -27q102 0 102 274 q0 172 -48 254t-167 92v158q59 8 95 35q80 63 79 205q0 215 -155 215q-172 0 -172 -256v-1143h-195z" />
<glyph unicode="&#xe0;" horiz-adv-x="917" d="M70 250q0 96 43 170t127 125t166.5 82.5t201.5 62.5v70q0 78 -45 124t-110 46q-131 0 -187 -150l-164 64q82 250 365 250q154 0 247 -78t93 -219v-637q0 -45 4 -103q0 -8 1 -21t2 -22.5t1 -13.5h-174l-33 129q-135 -145 -280 -145q-37 0 -76 12t-83 39.5t-71.5 83 t-27.5 131.5zM197 1525h254l209 -321h-76zM244 256q0 -55 41 -91t96 -36q80 0 153.5 70.5t73.5 150.5v203q-51 -16 -82.5 -27.5t-92 -41t-96.5 -58.5t-64.5 -74t-28.5 -96z" />
<glyph unicode="&#xe1;" horiz-adv-x="917" d="M70 250q0 96 43 170t127 125t166.5 82.5t201.5 62.5v70q0 78 -45 124t-110 46q-131 0 -187 -150l-164 64q82 250 365 250q154 0 247 -78t93 -219v-637q0 -45 4 -103q0 -8 1 -21t2 -22.5t1 -13.5h-174l-33 129q-135 -145 -280 -145q-37 0 -76 12t-83 39.5t-71.5 83 t-27.5 131.5zM244 256q0 -55 41 -91t96 -36q80 0 153.5 70.5t73.5 150.5v203q-51 -16 -82.5 -27.5t-92 -41t-96.5 -58.5t-64.5 -74t-28.5 -96zM301 1204l209 321h254l-387 -321h-76z" />
<glyph unicode="&#xe2;" horiz-adv-x="917" d="M70 250q0 96 43 170t127 125t166.5 82.5t201.5 62.5v70q0 78 -45 124t-110 46q-131 0 -187 -150l-164 64q82 250 365 250q154 0 247 -78t93 -219v-637q0 -45 4 -103q0 -8 1 -21t2 -22.5t1 -13.5h-174l-33 129q-135 -145 -280 -145q-37 0 -76 12t-83 39.5t-71.5 83 t-27.5 131.5zM156 1206l239 319h125l244 -319h-78l-227 172l-225 -172h-78zM244 256q0 -55 41 -91t96 -36q80 0 153.5 70.5t73.5 150.5v203q-51 -16 -82.5 -27.5t-92 -41t-96.5 -58.5t-64.5 -74t-28.5 -96z" />
<glyph unicode="&#xe3;" horiz-adv-x="917" d="M70 250q0 96 43 170t127 125t166.5 82.5t201.5 62.5v70q0 78 -45 124t-110 46q-131 0 -187 -150l-164 64q82 250 365 250q154 0 247 -78t93 -219v-637q0 -45 4 -103q0 -8 1 -21t2 -22.5t1 -13.5h-174l-33 129q-135 -145 -280 -145q-37 0 -76 12t-83 39.5t-71.5 83 t-27.5 131.5zM142 1245q4 66 22 113.5t39.5 70.5t52.5 36t44.5 14t29.5 1q68 0 174 -49q70 -35 104 -35q66 0 82 84h86q-4 -121 -59 -178t-135 -57q-63 0 -166 51q-76 35 -107 35q-63 0 -81 -86h-86zM244 256q0 -55 41 -91t96 -36q80 0 153.5 70.5t73.5 150.5v203 q-51 -16 -82.5 -27.5t-92 -41t-96.5 -58.5t-64.5 -74t-28.5 -96z" />
<glyph unicode="&#xe4;" horiz-adv-x="917" d="M70 250q0 96 43 170t127 125t166.5 82.5t201.5 62.5v70q0 78 -45 124t-110 46q-131 0 -187 -150l-164 64q82 250 365 250q154 0 247 -78t93 -219v-637q0 -45 4 -103q0 -8 1 -21t2 -22.5t1 -13.5h-174l-33 129q-135 -145 -280 -145q-37 0 -76 12t-83 39.5t-71.5 83 t-27.5 131.5zM185 1249v225h182v-225h-182zM244 256q0 -55 41 -91t96 -36q80 0 153.5 70.5t73.5 150.5v203q-51 -16 -82.5 -27.5t-92 -41t-96.5 -58.5t-64.5 -74t-28.5 -96zM553 1249v225h182v-225h-182z" />
<glyph unicode="&#xe5;" horiz-adv-x="917" d="M70 250q0 96 43 170t127 125t166.5 82.5t201.5 62.5v70q0 78 -45 124t-110 46q-131 0 -187 -150l-164 64q82 250 365 250q154 0 247 -78t93 -219v-637q0 -45 4 -103q0 -8 1 -21t2 -22.5t1 -13.5h-174l-33 129q-135 -145 -280 -145q-37 0 -76 12t-83 39.5t-71.5 83 t-27.5 131.5zM244 256q0 -55 41 -91t96 -36q80 0 153.5 70.5t73.5 150.5v203q-51 -16 -82.5 -27.5t-92 -41t-96.5 -58.5t-64.5 -74t-28.5 -96zM299 1409q0 82 59.5 141t141.5 59t141.5 -59.5t59.5 -140.5q0 -84 -59.5 -143.5t-141.5 -59.5t-141.5 59.5t-59.5 143.5z M383 1408.5q0 -49.5 34 -84t83 -34.5t83 34.5t34 84t-34 83t-83 33.5t-83 -33.5t-34 -83z" />
<glyph unicode="&#xe6;" horiz-adv-x="1343" d="M82 238q0 319 498 456q2 41 -1.5 69t-13.5 71t-43 66.5t-84 23.5q-113 0 -168 -152l-164 62q111 260 359 260q143 0 231 -93q90 92 230 93q162 0 260 -144q39 -59 60.5 -151t24.5 -140.5t7 -146.5h-502q0 -63 1 -94t8.5 -86.5t20.5 -84t43 -52t71 -23.5q123 0 167 162 l191 -39q-25 -92 -70 -158.5t-98 -97.5t-97 -43t-87 -12q-180 0 -285 159q-145 -160 -305 -159q-127 0 -190.5 80.5t-63.5 173.5zM256 270q0 -55 37 -92t88 -37q68 0 133.5 68.5t65.5 142.5v213q-39 -12 -75 -27.5t-102.5 -53.5t-106.5 -93t-40 -121zM776 655h303 q2 125 -41 199t-112 74q-59 0 -106.5 -61.5t-43.5 -211.5z" />
<glyph unicode="&#xe7;" horiz-adv-x="874" d="M72 500q0 584 379 583q27 0 52 -3t75.5 -20.5t86 -47t67.5 -94t38 -152.5l-176 -23q-10 82 -49 129.5t-94 47.5q-53 0 -91 -37q-82 -92 -81 -396q0 -338 172 -337q129 0 188 192l180 -29q-10 -39 -17 -63.5t-33 -76.5t-57.5 -85t-90 -62.5t-132.5 -37.5l-30 -56 q33 -4 65.5 -13t71.5 -45t39 -93q0 -82 -74 -125t-180 -43q-84 0 -250 39l55 90q88 -33 166 -33q113 0 113 68q0 78 -170 67l90 144q-313 49 -313 512z" />
<glyph unicode="&#xe8;" horiz-adv-x="917" d="M68 535q0 367 194 499q84 59 201 60q80 0 147.5 -29t108.5 -74t62.5 -78.5t33.5 -62.5q47 -117 43 -340h-579q-4 -344 186 -344q129 0 190 168l203 -45q-29 -92 -81 -156.5t-111.5 -94.5t-106.5 -42t-90 -12q-68 0 -130.5 23.5t-128 78.5t-104 171t-38.5 278zM197 1525 h254l209 -321h-76zM279 655h356q-10 272 -176 273q-49 0 -85 -21.5t-53.5 -49.5t-27.5 -73t-12 -68.5t-2 -60.5z" />
<glyph unicode="&#xe9;" horiz-adv-x="917" d="M68 535q0 367 194 499q84 59 201 60q80 0 147.5 -29t108.5 -74t62.5 -78.5t33.5 -62.5q47 -117 43 -340h-579q-4 -344 186 -344q129 0 190 168l203 -45q-29 -92 -81 -156.5t-111.5 -94.5t-106.5 -42t-90 -12q-68 0 -130.5 23.5t-128 78.5t-104 171t-38.5 278zM279 655 h356q-10 272 -176 273q-49 0 -85 -21.5t-53.5 -49.5t-27.5 -73t-12 -68.5t-2 -60.5zM301 1204l209 321h254l-387 -321h-76z" />
<glyph unicode="&#xea;" horiz-adv-x="917" d="M68 535q0 367 194 499q84 59 201 60q80 0 147.5 -29t108.5 -74t62.5 -78.5t33.5 -62.5q47 -117 43 -340h-579q-4 -344 186 -344q129 0 190 168l203 -45q-29 -92 -81 -156.5t-111.5 -94.5t-106.5 -42t-90 -12q-68 0 -130.5 23.5t-128 78.5t-104 171t-38.5 278zM156 1206 l239 319h125l244 -319h-78l-227 172l-225 -172h-78zM279 655h356q-10 272 -176 273q-49 0 -85 -21.5t-53.5 -49.5t-27.5 -73t-12 -68.5t-2 -60.5z" />
<glyph unicode="&#xeb;" horiz-adv-x="917" d="M68 535q0 367 194 499q84 59 201 60q80 0 147.5 -29t108.5 -74t62.5 -78.5t33.5 -62.5q47 -117 43 -340h-579q-4 -344 186 -344q129 0 190 168l203 -45q-29 -92 -81 -156.5t-111.5 -94.5t-106.5 -42t-90 -12q-68 0 -130.5 23.5t-128 78.5t-104 171t-38.5 278zM185 1249 v225h182v-225h-182zM279 655h356q-10 272 -176 273q-49 0 -85 -21.5t-53.5 -49.5t-27.5 -73t-12 -68.5t-2 -60.5zM553 1249v225h182v-225h-182z" />
<glyph unicode="&#xec;" horiz-adv-x="512" d="M-6 1525h254l209 -321h-76zM158 0v1077h198v-1077h-198z" />
<glyph unicode="&#xed;" horiz-adv-x="512" d="M98 1204l209 321h254l-387 -321h-76zM158 0v1077h198v-1077h-198z" />
<glyph unicode="&#xee;" horiz-adv-x="512" d="M-47 1206l239 319h125l244 -319h-78l-227 172l-225 -172h-78zM158 0v1077h198v-1077h-198z" />
<glyph unicode="&#xef;" horiz-adv-x="512" d="M-18 1249v225h182v-225h-182zM158 0v1077h198v-1077h-198zM350 1249v225h182v-225h-182z" />
<glyph unicode="&#xf0;" d="M80 528q0 322 141 463q98 102 248 103q47 0 109 -17q-45 123 -115 230l-213 -144l-49 74l213 141q-47 57 -66 78l-47 47l-20 23h157l82 -74l109 74l55 -74l-104 -72q133 -182 188 -315q115 -283 115 -551q0 -82 -14.5 -160t-53.5 -169t-124 -146t-206 -55q-106 0 -186 46 t-121 107.5t-64.5 145.5t-28.5 138t-5 107zM289 553q0 -215 47 -307t141 -92q98 0 145.5 86t47.5 290q0 217 -47.5 304.5t-143.5 87.5q-100 0 -145 -89.5t-45 -279.5z" />
<glyph unicode="&#xf1;" horiz-adv-x="980" d="M125 0v1077h199v-159q47 49 79.5 77.5t99 63.5t132.5 35q27 0 54.5 -5.5t63 -22.5t62.5 -46t46.5 -81t19.5 -120v-819h-199v764q0 43 -32 88t-95 45q-129 0 -231 -182v-715h-199zM173 1245q4 66 22 113.5t39.5 70.5t52.5 36t44.5 14t29.5 1q68 0 174 -49q70 -35 104 -35 q66 0 82 84h86q-4 -121 -59 -178t-135 -57q-63 0 -166 51q-76 35 -107 35q-63 0 -81 -86h-86z" />
<glyph unicode="&#xf2;" d="M78 532q0 319 137 453q113 109 262 109q158 0 262 -103q143 -137 144 -446q0 -369 -195 -498q-41 -27 -94 -42t-86 -17l-35 -4q-147 0 -256 106q-139 135 -139 442zM217 1525h254l209 -321h-76zM289 547q0 -395 184 -395q61 0 103 31.5t61.5 90t27 117t7.5 135.5 q0 205 -46 302.5t-149 97.5q-106 0 -147 -99.5t-41 -279.5z" />
<glyph unicode="&#xf3;" d="M78 532q0 319 137 453q113 109 262 109q158 0 262 -103q143 -137 144 -446q0 -369 -195 -498q-41 -27 -94 -42t-86 -17l-35 -4q-147 0 -256 106q-139 135 -139 442zM289 547q0 -395 184 -395q61 0 103 31.5t61.5 90t27 117t7.5 135.5q0 205 -46 302.5t-149 97.5 q-106 0 -147 -99.5t-41 -279.5zM321 1204l209 321h254l-387 -321h-76z" />
<glyph unicode="&#xf4;" d="M78 532q0 319 137 453q113 109 262 109q158 0 262 -103q143 -137 144 -446q0 -369 -195 -498q-41 -27 -94 -42t-86 -17l-35 -4q-147 0 -256 106q-139 135 -139 442zM176 1206l239 319h125l244 -319h-78l-227 172l-225 -172h-78zM289 547q0 -395 184 -395q61 0 103 31.5 t61.5 90t27 117t7.5 135.5q0 205 -46 302.5t-149 97.5q-106 0 -147 -99.5t-41 -279.5z" />
<glyph unicode="&#xf5;" d="M78 532q0 319 137 453q113 109 262 109q158 0 262 -103q143 -137 144 -446q0 -369 -195 -498q-41 -27 -94 -42t-86 -17l-35 -4q-147 0 -256 106q-139 135 -139 442zM162 1245q4 66 22 113.5t39.5 70.5t52.5 36t44.5 14t29.5 1q68 0 174 -49q70 -35 104 -35q66 0 82 84h86 q-4 -121 -59 -178t-135 -57q-63 0 -166 51q-76 35 -107 35q-63 0 -81 -86h-86zM289 547q0 -395 184 -395q61 0 103 31.5t61.5 90t27 117t7.5 135.5q0 205 -46 302.5t-149 97.5q-106 0 -147 -99.5t-41 -279.5z" />
<glyph unicode="&#xf6;" d="M78 532q0 319 137 453q113 109 262 109q158 0 262 -103q143 -137 144 -446q0 -369 -195 -498q-41 -27 -94 -42t-86 -17l-35 -4q-147 0 -256 106q-139 135 -139 442zM205 1249v225h182v-225h-182zM289 547q0 -395 184 -395q61 0 103 31.5t61.5 90t27 117t7.5 135.5 q0 205 -46 302.5t-149 97.5q-106 0 -147 -99.5t-41 -279.5zM573 1249v225h182v-225h-182z" />
<glyph unicode="&#xf7;" horiz-adv-x="1366" d="M135 588v157h1096v-157h-1096zM584 252q0 41 29.5 69.5t70.5 28.5t69.5 -28.5t28.5 -69.5q0 -39 -28.5 -68.5t-69.5 -29.5t-70.5 28.5t-29.5 69.5zM584 1081q0 41 29.5 70t70.5 29t69.5 -29t28.5 -70t-28.5 -69.5t-69.5 -28.5t-70.5 28.5t-29.5 69.5z" />
<glyph unicode="&#xf8;" d="M37 74l102 127q-61 133 -61 319q0 336 143 473q102 100 260 101q174 0 287 -131l90 114l76 -65l-113 -135q61 -127 62 -334q0 -193 -41 -303.5t-123 -171.5q-111 -84 -240 -84q-163 0 -284 131l-84 -101zM289 571q0 -104 6 -182l344 416q-41 121 -160 121 q-190 0 -190 -355zM324 272q8 -23 15 -36t24.5 -36.5t46 -35.5t67.5 -12q197 0 197 356q0 43 -10 176z" />
<glyph unicode="&#xf9;" horiz-adv-x="1003" d="M109 250v827h198v-733q0 -72 36 -116t89 -44q68 0 122 47.5t110 126.5v719h198v-1077h-198v162q-156 -178 -312 -178q-109 0 -176 73.5t-67 192.5zM240 1525h254l209 -321h-76z" />
<glyph unicode="&#xfa;" horiz-adv-x="1003" d="M109 250v827h198v-733q0 -72 36 -116t89 -44q68 0 122 47.5t110 126.5v719h198v-1077h-198v162q-156 -178 -312 -178q-109 0 -176 73.5t-67 192.5zM344 1204l209 321h254l-387 -321h-76z" />
<glyph unicode="&#xfb;" horiz-adv-x="1003" d="M109 250v827h198v-733q0 -72 36 -116t89 -44q68 0 122 47.5t110 126.5v719h198v-1077h-198v162q-156 -178 -312 -178q-109 0 -176 73.5t-67 192.5zM199 1206l239 319h125l244 -319h-78l-227 172l-225 -172h-78z" />
<glyph unicode="&#xfc;" horiz-adv-x="1003" d="M109 250v827h198v-733q0 -72 36 -116t89 -44q68 0 122 47.5t110 126.5v719h198v-1077h-198v162q-156 -178 -312 -178q-109 0 -176 73.5t-67 192.5zM228 1249v225h182v-225h-182zM596 1249v225h182v-225h-182z" />
<glyph unicode="&#xfd;" horiz-adv-x="897" d="M31 1077h200l213 -753h5l217 753h198l-321 -1106q-35 -119 -84 -194.5t-117 -109.5t-129 -44t-156 -10v147q137 6 191.5 45t97.5 166zM291 1204l209 321h254l-387 -321h-76z" />
<glyph unicode="&#xfe;" horiz-adv-x="980" d="M127 -371v1897h199v-645h4q104 213 268 213q104 0 188 -84q117 -117 117 -437q0 -41 -2 -77.5t-9 -114.5t-27.5 -139.5t-50.5 -124t-85 -98t-124.5 -35.5t-133 41t-92.5 76.5t-49 72.5h-4v-545h-199zM326 336q0 -20 61 -109q16 -25 57 -43t80 -18q41 0 71 21.5t47 62.5 t28.5 79t15.5 96t5 88t1 77q0 334 -172 334q-53 0 -101 -43t-70.5 -84.5t-22.5 -55.5v-405z" />
<glyph unicode="&#xff;" horiz-adv-x="897" d="M31 1077h200l213 -753h5l217 753h198l-321 -1106q-35 -119 -84 -194.5t-117 -109.5t-129 -44t-156 -10v147q137 6 191.5 45t97.5 166zM175 1249v225h182v-225h-182zM543 1249v225h182v-225h-182z" />
<glyph unicode="&#x152;" horiz-adv-x="1622" d="M82 750q0 207 55.5 399t167.5 285q106 88 256 88q166 0 273 -107v90h710v-196h-485v-451h354v-194h-354v-469h506v-195h-731v94q-37 -35 -65 -54.5t-83 -37.5t-125 -18q-180 0 -282 110q-80 86 -128.5 229.5t-58.5 239.5t-10 187zM324 741q0 -78 3 -137t16 -147 t38 -145.5t73.5 -99.5t116.5 -42q78 0 131.5 44t79 128t35.5 178t10 221q0 133 -10 230.5t-36.5 182.5t-79 129t-128.5 44q-78 0 -130 -48t-76.5 -138t-33.5 -183.5t-9 -216.5z" />
<glyph unicode="&#x153;" horiz-adv-x="1429" d="M74 537q0 322 137 458q102 98 246 99q76 0 140.5 -29t87 -51.5t54.5 -59.5q127 139 275 140q166 0 264 -148q90 -141 90 -436h-532q-8 -340 170 -340q123 0 165 164l197 -41q-27 -94 -72 -160.5t-98 -96.5t-96 -41t-84 -11q-168 0 -287 135q-117 -135 -272 -135 q-147 0 -250 96q-135 133 -135 457zM283 541q0 -391 172 -391q186 0 186 391q0 184 -40 288.5t-144 104.5q-174 0 -174 -393zM836 653h335q-8 279 -167 279q-162 0 -168 -279z" />
<glyph unicode="&#x178;" horiz-adv-x="1067" d="M33 1505h229l270 -620l275 620h229l-389 -880v-625h-231v625zM259 1641v225h182v-225h-182zM627 1641v225h182v-225h-182z" />
<glyph unicode="&#x2c6;" horiz-adv-x="681" d="M37 1186l239 319h125l244 -319h-78l-227 172l-225 -172h-78z" />
<glyph unicode="&#x2dc;" horiz-adv-x="681" d="M23 1225q4 66 22 113.5t39.5 70.5t52.5 36t44.5 14t29.5 1q68 0 174 -49q70 -35 104 -35q66 0 82 84h86q-4 -121 -59 -178t-135 -57q-63 0 -166 51q-76 35 -107 35q-63 0 -81 -86h-86z" />
<glyph unicode="&#x2000;" horiz-adv-x="1000" />
<glyph unicode="&#x2001;" horiz-adv-x="2001" />
<glyph unicode="&#x2002;" horiz-adv-x="1000" />
<glyph unicode="&#x2003;" horiz-adv-x="2001" />
<glyph unicode="&#x2004;" horiz-adv-x="667" />
<glyph unicode="&#x2005;" horiz-adv-x="500" />
<glyph unicode="&#x2006;" horiz-adv-x="333" />
<glyph unicode="&#x2007;" horiz-adv-x="333" />
<glyph unicode="&#x2008;" horiz-adv-x="250" />
<glyph unicode="&#x2009;" horiz-adv-x="400" />
<glyph unicode="&#x200a;" horiz-adv-x="111" />
<glyph unicode="&#x2010;" horiz-adv-x="768" d="M162 492v198h444v-198h-444z" />
<glyph unicode="&#x2011;" horiz-adv-x="768" d="M162 492v198h444v-198h-444z" />
<glyph unicode="&#x2012;" horiz-adv-x="768" d="M162 492v198h444v-198h-444z" />
<glyph unicode="&#x2013;" horiz-adv-x="1024" d="M-12 446v129h1048v-129h-1048z" />
<glyph unicode="&#x2014;" horiz-adv-x="2048" d="M-12 446v129h2072v-129h-2072z" />
<glyph unicode="&#x2018;" horiz-adv-x="575" d="M168 948v250l168 328h82l-131 -328h100v-250h-219z" />
<glyph unicode="&#x2019;" horiz-adv-x="575" d="M158 948l131 328h-101v250h220v-250l-168 -328h-82z" />
<glyph unicode="&#x201a;" horiz-adv-x="575" d="M143 -328l131 328h-100v250h219v-250l-168 -328h-82z" />
<glyph unicode="&#x201c;" d="M156 948v250l168 328h82l-132 -328h101v-250h-219zM584 948v250l168 328h82l-132 -328h101v-250h-219z" />
<glyph unicode="&#x201d;" d="M127 948l131 328h-100v250h219v-250l-168 -328h-82zM555 948l131 328h-100v250h219v-250l-168 -328h-82z" />
<glyph unicode="&#x201e;" d="M127 -328l131 328h-100v250h219v-250l-168 -328h-82zM555 -328l131 328h-100v250h219v-250l-168 -328h-82z" />
<glyph unicode="&#x2022;" horiz-adv-x="854" d="M131 723q0 123 86 210t209 87t209 -86t86 -211q0 -123 -87 -209t-208 -86q-123 0 -209 87t-86 208z" />
<glyph unicode="&#x2026;" horiz-adv-x="1728" d="M190 0v250h220v-250h-220zM762 0v250h219v-250h-219zM1333 0v250h219v-250h-219z" />
<glyph unicode="&#x202f;" horiz-adv-x="400" />
<glyph unicode="&#x2039;" horiz-adv-x="575" d="M66 543l237 534h205l-238 -534l238 -543h-205z" />
<glyph unicode="&#x203a;" horiz-adv-x="575" d="M68 0l237 535l-237 542h204l238 -542l-238 -535h-204z" />
<glyph unicode="&#x205f;" horiz-adv-x="500" />
<glyph unicode="&#x2122;" horiz-adv-x="1685" d="M35 1362v143h665v-143h-245v-676h-166v676h-254zM799 686v819h260l145 -565h4l148 565h260v-819h-158v653h-4l-172 -653h-152l-172 653h-4v-653h-155z" />
<glyph unicode="&#xe000;" horiz-adv-x="1075" d="M0 0v1075h1075v-1075h-1075z" />
<glyph unicode="&#xfb01;" horiz-adv-x="1087" d="M37 901v176h145v76q0 68 4 116t21.5 104.5t47.5 90t86 56t134 22.5q53 0 107 -16v-162q-133 2 -167 -43t-34 -199v-45h184v-176h-184v-901h-199v901h-145zM733 0v1077h199v-1077h-199zM733 1298v228h199v-228h-199z" />
<glyph unicode="&#xfb02;" horiz-adv-x="1087" d="M37 901v176h145v76q0 68 4 116t21.5 104.5t47.5 90t86 56t134 22.5q53 0 107 -16v-162q-133 2 -167 -43t-34 -199v-45h184v-176h-184v-901h-199v901h-145zM733 0v1526h199v-1526h-199z" />
</font>
</defs>
</svg>
